<svg width="1000" height="1000" viewBox="0 0 1000 1000" fill="none" xmlns="http://www.w3.org/2000/svg">
<g clip-path="url(#clip0_807_6)">
<rect x="-390" y="-317" width="2009" height="1761" fill="black"/>
<path fill-rule="evenodd" clip-rule="evenodd" d="M650.078 784.907H785V653.558H650.078V784.907Z" fill="white"/>
<path fill-rule="evenodd" clip-rule="evenodd" d="M508.031 310.223V485.984V487.677H506.298L325.752 487.683H324.012V485.984V310.223V308.53H325.752H506.298H508.031V310.223ZM480.076 216.736C478.793 216.48 477.21 216.273 475.633 216.078C475.277 216.042 474.939 215.968 474.589 215.938C469.865 215.402 463.858 215.11 456.456 215.043C456.156 215.043 455.862 215 455.562 215C455.418 215 455.274 215.018 455.13 215.018C454.686 215.018 454.342 215 453.891 215H215V784.999H324.012V580.963V579.209H325.814H447.39C450.118 579.331 452.802 579.611 455.562 579.611C558.98 579.611 642.821 497.989 642.821 397.308C642.821 304.729 571.888 228.449 480.076 216.736Z" fill="white"/>
</g>
<defs>
<clipPath id="clip0_807_6">
<rect width="1000" height="1000" fill="white"/>
</clipPath>
</defs>
</svg>
