<svg width="1024" height="1024" viewBox="0 0 1024 1024" fill="none" xmlns="http://www.w3.org/2000/svg">
<rect width="1024" height="1024" rx="240" fill="white"/>
<path d="M406.444 604.455C394.376 604.455 378.157 612.011 370.4 621.247L245.185 770.346C237.428 779.582 240.955 787.138 253.023 787.138H480.819C581.799 787.138 663.659 705.348 663.659 604.455C663.659 600.682 663.509 596.946 663.282 593.23C643.58 600.485 622.287 604.455 600.064 604.455H406.444Z" fill="url(#paint0_linear_65_3026)"/>
<path d="M782.744 421.797C782.744 320.917 701.005 239.138 600.176 239.138H457.836C445.787 239.138 429.591 246.694 421.846 255.929L296.818 405.005C289.072 414.24 292.594 421.794 304.643 421.794H481.109C578.169 421.794 657.501 497.582 663.3 593.23C733.02 567.524 782.744 500.474 782.744 421.797Z" fill="url(#paint1_linear_65_3026)"/>
<defs>
<linearGradient id="paint0_linear_65_3026" x1="658.213" y1="606.424" x2="238.9" y2="794.8" gradientUnits="userSpaceOnUse">
<stop/>
<stop offset="1" stop-opacity="0.4"/>
</linearGradient>
<linearGradient id="paint1_linear_65_3026" x1="420.014" y1="268.178" x2="538.756" y2="634.307" gradientUnits="userSpaceOnUse">
<stop/>
<stop offset="1" stop-opacity="0.4"/>
</linearGradient>
</defs>
</svg>
